<?xml version="1.0" encoding="utf-8"?>
<!-- Generator: Adobe Illustrator 21.1.0, SVG Export Plug-In . SVG Version: 6.00 Build 0)  -->
<svg version="1.1" id="Layer_1" xmlns="http://www.w3.org/2000/svg" xmlns:xlink="http://www.w3.org/1999/xlink" x="0px" y="0px"
	 viewBox="0 0 30 30" style="enable-background:new 0 0 30 30;" xml:space="preserve">
<style type="text/css">
	.st0{fill:#F2ECD3;}
	.st1{fill:#C6C3B5;}
	.st2{fill:#D8D4C0;}
	.st3{fill:#C4C1B3;}
	.st4{fill:#B7B4A7;}
	.st5{clip-path:url(#XMLID_2_);fill:#FFE878;}
	.st6{clip-path:url(#XMLID_2_);fill:#FFCF7B;}
	.st7{fill:#EFD875;}
	.st8{fill:#6F7548;}
	.st9{fill:#FF7300;}
	.st10{fill:#E86605;}
	.st11{fill:#A00B44;}
	.st12{fill:#46492E;}
	.st13{fill:#870B3D;}
	.st14{fill:none;stroke:#4E5927;stroke-width:0.3061;stroke-miterlimit:10;}
	.st15{fill:#4E5927;}
	.st16{fill:#C92020;}
	.st17{fill:#B72323;}
	.st18{fill:#EACC39;}
	.st19{fill:#CEB034;}
	.st20{fill:#CEB757;}
	.st21{fill:#B5A252;}
	.st22{fill:#EDDC96;}
	.st23{fill:#D6C88E;}
	.st24{fill:#66521F;}
	.st25{opacity:0.3;fill:#443207;}
	.st26{fill:#725A26;}
	.st27{fill:#E2C386;}
	.st28{opacity:0.2;}
	.st29{fill:#937A47;}
	.st30{fill:#AAA394;}
	.st31{opacity:0.5;fill:#969187;}
	.st32{fill:#C1BEB8;}
	.st33{fill:#9B9791;}
	.st34{fill:#AAA8A5;}
	.st35{fill:#A5A29D;}
	.st36{fill:#995E64;}
	.st37{fill:#934448;}
	.st38{fill:#EFE4E6;}
	.st39{fill:#704725;}
	.st40{fill:#845431;}
	.st41{fill:#F2AFBF;}
	.st42{fill:#F70835;}
	.st43{fill:#EFCAD4;}
	.st44{fill:#C6284E;}
</style>
<g>
	<g id="XMLID_434_">
		<g id="XMLID_435_">
			<g id="XMLID_439_">
				<path id="XMLID_441_" class="st20" d="M1.6,14.7c0-3.7,6.1-6.8,13.5-6.8s13.5,3,13.5,6.8"/>
				<path id="XMLID_440_" class="st20" d="M28.7,14.4L28.7,14.4c0,2.4-1.9,4.3-4.3,4.3H5.9c-2.4,0-4.3-1.9-4.3-4.3v0"/>
			</g>
			<polygon id="XMLID_438_" class="st21" points="8.2,8.9 9.9,11.3 10.5,8.3 			"/>
			<polygon id="XMLID_437_" class="st21" points="14.9,7.9 15.8,11.3 17.5,8 			"/>
			<polygon id="XMLID_436_" class="st21" points="21.4,8.7 21.6,11.6 23.9,9.6 			"/>
		</g>
	</g>
	<g id="XMLID_337_">
		<path id="XMLID_433_" class="st22" d="M9.9,17.1c1.2,1.2,1.3,3.2,1.3,3.2S9.3,20.2,8,19c-1.2-1.2-1.3-3.2-1.3-3.2
			S8.7,15.9,9.9,17.1z"/>
		<path id="XMLID_432_" class="st22" d="M14.6,17.1c1.2,1.2,1.3,3.2,1.3,3.2s-1.9-0.1-3.2-1.3c-1.2-1.2-1.3-3.2-1.3-3.2
			S13.4,15.8,14.6,17.1z"/>
		<path id="XMLID_431_" class="st22" d="M19.5,17.1c1.2,1.2,1.3,3.2,1.3,3.2s-1.9-0.1-3.2-1.3c-1.2-1.2-1.3-3.2-1.3-3.2
			S18.3,15.9,19.5,17.1z"/>
		<path id="XMLID_430_" class="st22" d="M10,23.6c1.2-1.2,1.3-3.2,1.3-3.2s-1.9,0.1-3.2,1.3c-1.2,1.2-1.3,3.2-1.3,3.2
			S8.8,24.8,10,23.6z"/>
		<path id="XMLID_429_" class="st22" d="M14.7,23.6c1.2-1.2,1.3-3.2,1.3-3.2s-1.9,0.1-3.2,1.3c-1.2,1.2-1.3,3.2-1.3,3.2
			S13.5,24.8,14.7,23.6z"/>
		<path id="XMLID_428_" class="st22" d="M19.6,23.6c1.2-1.2,1.3-3.2,1.3-3.2s-1.9,0.1-3.2,1.3c-1.2,1.2-1.3,3.2-1.3,3.2
			S18.4,24.8,19.6,23.6z"/>
		<rect id="XMLID_162_" x="6.4" y="20.1" class="st23" width="23.6" height="0.6"/>
		<path id="XMLID_394_" class="st22" d="M4.8,19c1.7,0,3.2,1.3,3.2,1.3s-1.4,1.3-3.2,1.3s-3.2-1.3-3.2-1.3S3,19,4.8,19z"/>
	</g>
</g>
</svg>
