<?xml version="1.0" encoding="utf-8"?>
<!-- Generator: Adobe Illustrator 21.1.0, SVG Export Plug-In . SVG Version: 6.00 Build 0)  -->
<svg version="1.1" id="Layer_1" xmlns="http://www.w3.org/2000/svg" xmlns:xlink="http://www.w3.org/1999/xlink" x="0px" y="0px"
	 viewBox="0 0 30 30" style="enable-background:new 0 0 30 30;" xml:space="preserve">
<style type="text/css">
	.st0{fill:#F2ECD3;}
	.st1{fill:#C6C3B5;}
	.st2{fill:#D8D4C0;}
	.st3{fill:#C4C1B3;}
	.st4{fill:#B7B4A7;}
	.st5{clip-path:url(#XMLID_2_);fill:#FFE878;}
	.st6{clip-path:url(#XMLID_2_);fill:#FFCF7B;}
	.st7{fill:#EFD875;}
	.st8{fill:#6F7548;}
	.st9{fill:#FF7300;}
	.st10{fill:#E86605;}
	.st11{fill:#A00B44;}
	.st12{fill:#46492E;}
	.st13{fill:#870B3D;}
	.st14{fill:none;stroke:#4E5927;stroke-width:0.3061;stroke-miterlimit:10;}
	.st15{fill:#4E5927;}
	.st16{fill:#C92020;}
	.st17{fill:#B72323;}
	.st18{fill:#EACC39;}
	.st19{fill:#CEB034;}
	.st20{fill:#CEB757;}
	.st21{fill:#B5A252;}
	.st22{fill:#EDDC96;}
	.st23{fill:#D6C88E;}
	.st24{fill:#66521F;}
	.st25{opacity:0.3;fill:#443207;}
	.st26{fill:#725A26;}
	.st27{fill:#E2C386;}
	.st28{opacity:0.2;}
	.st29{fill:#937A47;}
	.st30{fill:#AAA394;}
	.st31{opacity:0.5;fill:#969187;}
	.st32{fill:#C1BEB8;}
	.st33{fill:#9B9791;}
	.st34{fill:#AAA8A5;}
	.st35{fill:#A5A29D;}
	.st36{fill:#995E64;}
	.st37{fill:#934448;}
	.st38{fill:#EFE4E6;}
	.st39{fill:#704725;}
	.st40{fill:#845431;}
	.st41{fill:#F2AFBF;}
	.st42{fill:#F70835;}
	.st43{fill:#EFCAD4;}
	.st44{fill:#C6284E;}
</style>
<g>
	<g id="XMLID_515_">
		
			<rect id="XMLID_508_" x="2.3" y="11.2" transform="matrix(0.994 -0.1089 0.1089 0.994 -1.5539 1.6427)" class="st39" width="24" height="7.7"/>
		<polygon id="XMLID_516_" class="st40" points="1.9,12.5 0.2,11.4 0.7,13.2 0.3,14.3 0.8,15.1 0.5,16.5 1.1,17.6 0.8,18.9 
			1.3,19.4 1.1,21.2 2.8,20.2 		"/>
		<polygon id="XMLID_517_" class="st40" points="26.6,17.5 29,18.6 28.4,16.8 29,15.7 28.2,14.9 28.7,13.4 28,12.4 28.5,11 
			27.8,10.6 28.2,8.7 25.7,9.8 		"/>
	</g>
	<g id="XMLID_545_">
		<polygon id="XMLID_544_" class="st41" points="15.6,18.7 19.4,16.6 18.6,18.3 20,19.2 18.6,19.8 19.2,21.6 		"/>
		<polygon id="XMLID_546_" class="st41" points="9.7,18.8 5.8,20.8 6.6,19.2 5.2,18.2 6.6,17.6 6.1,15.9 		"/>
		<path id="XMLID_518_" class="st42" d="M16.5,18.8c0,0-1.6,2.9-3.7,2.9s-3.7-2.9-3.7-2.9s1.6-2.9,3.7-2.9S16.5,18.8,16.5,18.8z"/>
	</g>
	<g id="XMLID_548_">
		<polygon id="XMLID_551_" class="st43" points="19.3,19.7 21.4,16.7 21.4,18.3 22.8,18.5 22,19.5 23.1,20.6 		"/>
		<polygon id="XMLID_550_" class="st43" points="14.8,22.1 12.7,25.1 12.7,23.5 11.2,23.4 12,22.4 11,21.2 		"/>
		<path id="XMLID_549_" class="st44" d="M20,19.5c0,0-0.1,2.8-1.7,3.6c-1.5,0.8-3.9-0.8-3.9-0.8s0.1-2.8,1.7-3.6
			C17.6,17.9,20,19.5,20,19.5z"/>
	</g>
</g>
</svg>
