<?xml version="1.0" encoding="utf-8"?>
<!-- Generator: Adobe Illustrator 21.1.0, SVG Export Plug-In . SVG Version: 6.00 Build 0)  -->
<svg version="1.1" id="Layer_1" xmlns="http://www.w3.org/2000/svg" xmlns:xlink="http://www.w3.org/1999/xlink" x="0px" y="0px"
	 viewBox="0 0 30 30" style="enable-background:new 0 0 30 30;" xml:space="preserve">
<style type="text/css">
	.st0{fill:#F2ECD3;}
	.st1{fill:#C6C3B5;}
	.st2{fill:#D8D4C0;}
	.st3{fill:#C4C1B3;}
	.st4{fill:#B7B4A7;}
	.st5{clip-path:url(#XMLID_2_);fill:#FFE878;}
	.st6{clip-path:url(#XMLID_2_);fill:#FFCF7B;}
	.st7{fill:#EFD875;}
	.st8{fill:#6F7548;}
	.st9{fill:#FF7300;}
	.st10{fill:#E86605;}
	.st11{fill:#A00B44;}
	.st12{fill:#46492E;}
	.st13{fill:#870B3D;}
	.st14{fill:none;stroke:#4E5927;stroke-width:0.3061;stroke-miterlimit:10;}
	.st15{fill:#4E5927;}
	.st16{fill:#C92020;}
	.st17{fill:#B72323;}
	.st18{fill:#EACC39;}
	.st19{fill:#CEB034;}
	.st20{fill:#CEB757;}
	.st21{fill:#B5A252;}
	.st22{fill:#EDDC96;}
	.st23{fill:#D6C88E;}
	.st24{fill:#66521F;}
	.st25{opacity:0.3;fill:#443207;}
	.st26{fill:#725A26;}
	.st27{fill:#E2C386;}
	.st28{opacity:0.2;}
	.st29{fill:#937A47;}
	.st30{fill:#AAA394;}
	.st31{opacity:0.5;fill:#969187;}
	.st32{fill:#C1BEB8;}
	.st33{fill:#9B9791;}
	.st34{fill:#AAA8A5;}
	.st35{fill:#A5A29D;}
	.st36{fill:#995E64;}
	.st37{fill:#934448;}
	.st38{fill:#EFE4E6;}
	.st39{fill:#704725;}
	.st40{fill:#845431;}
	.st41{fill:#F2AFBF;}
	.st42{fill:#F70835;}
	.st43{fill:#EFCAD4;}
	.st44{fill:#C6284E;}
</style>
<g id="XMLID_335_">
	<g id="XMLID_334_">
		<line id="XMLID_392_" class="st14" x1="12" y1="9.9" x2="12" y2="6.5"/>
		<path id="XMLID_393_" class="st15" d="M15.5,6.1c-1.8,1-3.9,0.5-3.9,0.5s0.7-2,2.5-3S18,3,18,3S17.3,5.1,15.5,6.1z"/>
		<path id="XMLID_355_" class="st16" d="M18.3,16.6C17.4,21.3,15.7,22,12,22c-3.4,0-5-1.3-6-5.1c-0.5-2-0.8-6.2,0.5-7.5
			s2.6-0.7,5.2-0.8c3.3-0.1,4.4-0.7,5.8,0.8C18.7,10.6,18.7,14,18.3,16.6z"/>
		<path id="XMLID_354_" class="st17" d="M12,8.6c3.3-0.1,4.4-0.7,5.8,0.8c1.2,1.2,1.2,4.6,0.7,7.2c-0.8,4.7-2.6,5.4-6.3,5.4"/>
	</g>
	<g id="XMLID_338_">
		<path id="XMLID_340_" class="st18" d="M29.8,15.1l-0.5-1l-1.4,1.6c0,0-5.9,3.7-13.2,3.8c-6.3,0.1-13.2-3.8-13.2-3.8
			C1.1,15.8,1,16.4,1,16.8c0.9,4.8,6.9,8.7,13.6,8.7c6.7,0,12.9-3.9,13.7-8.7c0,0,0-0.1,0-0.1l0,0L29.8,15.1z"/>
		<path id="XMLID_339_" class="st19" d="M1.2,16C1,16.2,1,16.5,1,16.8c0.9,4.8,6.9,8.7,13.6,8.7c6.7,0,12.9-3.9,13.7-8.7
			c0,0,0-0.1,0-0.1l0,0l1.4-1.6l-0.2-0.5c0,0-6.5,8.2-15.3,8.1C6,22.6,1.2,16,1.2,16z"/>
	</g>
</g>
</svg>
