<?xml version="1.0" encoding="utf-8"?>
<!-- Generator: Adobe Illustrator 21.1.0, SVG Export Plug-In . SVG Version: 6.00 Build 0)  -->
<svg version="1.1" id="Layer_1" xmlns="http://www.w3.org/2000/svg" xmlns:xlink="http://www.w3.org/1999/xlink" x="0px" y="0px"
	 viewBox="0 0 1920 250" style="enable-background:new 0 0 1920 250;" xml:space="preserve">
<style type="text/css">
	.st0{fill:#82BC92;}
	.st1{fill:#658E6D;}
	.st2{fill:#90D3A5;}
	.st3{fill:none;stroke:#658E6D;stroke-width:3.9097;stroke-miterlimit:10;}
	.st4{fill:none;stroke:#658E6D;stroke-width:2.2444;stroke-miterlimit:10;}
	.st5{fill:#74A57F;}
	.st6{fill:none;stroke:#658E6D;stroke-width:2.6949;stroke-miterlimit:10;}
	.st7{fill:none;stroke:#709B77;stroke-width:2.6949;stroke-miterlimit:10;}
	.st8{fill:none;stroke:#658E6D;stroke-width:1.9826;stroke-miterlimit:10;}
	.st9{fill:none;stroke:#709B77;stroke-width:1.9826;stroke-miterlimit:10;}
	.st10{fill:none;stroke:#658E6D;stroke-width:2.1317;stroke-miterlimit:10;}
	.st11{fill:none;stroke:#658E6D;stroke-width:2.8309;stroke-miterlimit:10;}
</style>
<g>
	<g>
		<g>
			<rect x="-41.9" y="0.1" class="st0" width="689.9" height="252.4"/>
		</g>
		<g>
			<g id="XMLID_258_">
				<g id="XMLID_262_">

						<rect id="XMLID_272_" x="181.7" y="16.7" transform="matrix(0.4175 -0.9087 0.9087 0.4175 49.7946 202.541)" class="st1" width="2.4" height="91.4"/>
					<path id="XMLID_271_" class="st1" d="M181.2,66.8c6.2-2,12.7,0.5,12.7,0.5s-3.7,5.9-9.9,8c-6.2,2-11.9,1.8-12.7-0.5
						S175,68.8,181.2,66.8z"/>
					<path id="XMLID_270_" class="st1" d="M197.2,74.1c6.2-2,12.7,0.5,12.7,0.5s-3.7,5.9-9.9,8s-11.9,1.8-12.7-0.5
						C186.5,79.7,190.9,76.2,197.2,74.1z"/>
					<path id="XMLID_269_" class="st1" d="M163.4,57c6.5-1.2,12.5,2.1,12.5,2.1s-4.4,5.4-10.8,6.6s-12.1,0.3-12.5-2.1
						C152.1,61.2,157,58.2,163.4,57z"/>
					<path id="XMLID_268_" class="st1" d="M143.3,48.8c6.5-1.2,12.5,2.1,12.5,2.1s-4.4,5.4-10.9,6.6c-6.5,1.2-12.1,0.3-12.5-2.1
						C131.9,53,136.8,50.1,143.3,48.8z"/>
					<path id="XMLID_267_" class="st1" d="M134.1,35.3c5.9,2.9,8.8,9.2,8.8,9.2s-6.7,1.7-12.7-1.1c-5.9-2.9-9.9-7-8.8-9.2
						C122.5,32,128.2,32.5,134.1,35.3z"/>
					<path id="XMLID_266_" class="st1" d="M204.8,60.3c2.8,5.9,1.1,12.7,1.1,12.7s-6.3-2.9-9.2-8.8c-2.8-5.9-3.3-11.6-1.1-12.7
						S201.9,54.4,204.8,60.3z"/>
					<path id="XMLID_265_" class="st1" d="M186.6,52c2.8,5.9,1.1,12.7,1.1,12.7s-6.3-2.9-9.2-8.8s-3.3-11.6-1.1-12.7
						S183.8,46.1,186.6,52z"/>
					<path id="XMLID_264_" class="st1" d="M167.2,43.1c2.8,5.9,1.1,12.7,1.1,12.7s-6.3-2.9-9.2-8.8s-3.3-11.6-1.1-12.7
						S164.4,37.1,167.2,43.1z"/>
					<path id="XMLID_263_" class="st1" d="M150.5,35.4c2.8,5.9,1.1,12.7,1.1,12.7s-6.3-2.9-9.2-8.8s-3.3-11.6-1.1-12.7
						S147.7,29.5,150.5,35.4z"/>
				</g>
				<g id="XMLID_259_">
					<path id="XMLID_261_" class="st2" d="M226.4,112.5c-13.7-6.3-19.7-22.5-13.4-36.2s22.5-19.7,36.2-13.4"/>
					<polygon id="XMLID_260_" class="st2" points="226.4,112.5 362.7,145.1 249.2,62.9 					"/>
				</g>
			</g>
			<line class="st3" x1="264.7" y1="74.7" x2="253" y2="96.2"/>
			<line class="st3" x1="256.4" y1="120.1" x2="267.6" y2="99.1"/>
			<line class="st3" x1="285.2" y1="124.5" x2="295" y2="103"/>
			<line class="st3" x1="363.4" y1="144.1" x2="394.7" y2="155.8"/>
		</g>
		<g>
			<g id="XMLID_243_">
				<g id="XMLID_247_">

						<rect id="XMLID_257_" x="422" y="217.3" transform="matrix(0.8839 -0.4677 0.4677 0.8839 -49.8933 234.9721)" class="st1" width="52.5" height="1.4"/>
					<path id="XMLID_256_" class="st1" d="M446.9,215.7c-1.2,3.6-4.7,5.6-4.7,5.6s-1.4-3.7-0.2-7.3c1.2-3.6,3.3-6.1,4.7-5.6
						C448,208.9,448.1,212.1,446.9,215.7z"/>
					<path id="XMLID_255_" class="st1" d="M438,220.4c-1.2,3.6-4.7,5.6-4.7,5.6s-1.4-3.7-0.2-7.3c1.2-3.6,3.3-6.1,4.7-5.6
						C439.2,213.6,439.2,216.8,438,220.4z"/>
					<path id="XMLID_254_" class="st1" d="M457.6,211c-1.7,3.4-5.3,5-5.3,5s-0.9-3.9,0.8-7.3c1.7-3.4,4.1-5.6,5.3-5
						S459.2,207.6,457.6,211z"/>
					<path id="XMLID_253_" class="st1" d="M468.3,204.7c-1.7,3.4-5.4,5-5.4,5s-0.9-3.9,0.8-7.3c1.7-3.4,4.1-5.6,5.4-5
						C470.3,198,470,201.3,468.3,204.7z"/>
					<path id="XMLID_252_" class="st1" d="M477.6,205.2c-3.4,1.7-7.3,0.8-7.3,0.8s1.6-3.7,4.9-5.4c3.4-1.7,6.6-2.1,7.3-0.8
						C483.2,201.1,481,203.5,477.6,205.2z"/>
					<path id="XMLID_251_" class="st1" d="M441.6,228.7c-3.7-0.8-6.2-3.9-6.2-3.9s3.5-1.9,7.2-1.1c3.7,0.8,6.4,2.5,6.2,3.9
						C448.5,229,445.3,229.5,441.6,228.7z"/>
					<path id="XMLID_250_" class="st1" d="M451.7,223.3c-3.7-0.8-6.2-3.9-6.2-3.9s3.5-1.9,7.2-1.1s6.5,2.5,6.2,3.9
						C458.7,223.6,455.4,224.1,451.7,223.3z"/>
					<path id="XMLID_249_" class="st1" d="M462.6,217.6c-3.7-0.8-6.2-3.9-6.2-3.9s3.5-1.9,7.2-1.1c3.7,0.8,6.4,2.5,6.2,3.9
						C469.5,217.9,466.3,218.4,462.6,217.6z"/>
					<path id="XMLID_248_" class="st1" d="M471.9,212.7c-3.7-0.8-6.2-3.9-6.2-3.9s3.5-1.9,7.2-1.1c3.7,0.8,6.4,2.5,6.2,3.9
						C478.8,212.9,475.6,213.4,471.9,212.7z"/>
				</g>
				<g id="XMLID_244_">
					<path id="XMLID_246_" class="st2" d="M410.3,220.3c7.6-4,17.1-1.1,21.2,6.5c4,7.6,1.1,17.1-6.5,21.2"/>
					<polygon id="XMLID_245_" class="st2" points="410.3,220.3 347.9,271.1 425,248 					"/>
				</g>
			</g>
			<line class="st4" x1="414.1" y1="251" x2="408.4" y2="238.1"/>
			<line class="st4" x1="396.3" y1="231.3" x2="402" y2="243.8"/>
			<line class="st4" x1="384.3" y1="243" x2="390.6" y2="254.9"/>
		</g>
		<g>
			<g>
				<circle class="st5" cx="3.1" cy="128.5" r="23.7"/>
				<circle class="st5" cx="58.2" cy="108.4" r="23.7"/>
				<g>
					<path class="st1" d="M15.6,173.8c0.9-0.1,15.2,8.7,31.2,23.7C62.2,211.8,63,215.6,63,215.6l15.6-7.8c0,0-1.6-7.6-2.1-21.1
						c-0.7-20.2-1.6-42.8-1.5-41.9l-10.5,2.7c0,0,5.5,24-0.8,26.6c-6.5,2.6-14.1-17.5-14.1-17.5l-8.7,4.5c0,0,10.3,16.9,5.3,20.1
						c-5.5,3.6-25.1-14.6-25.1-14.6L15.6,173.8z"/>
					<circle class="st2" cx="5.5" cy="151.5" r="26.6"/>
					<circle class="st2" cx="27.4" cy="107.4" r="26.6"/>
					<circle class="st2" cx="74.6" cy="124.9" r="26.6"/>
					<circle class="st2" cx="36.5" cy="142.2" r="28.4"/>
					<circle class="st2" cx="70.7" cy="211.6" r="8.5"/>
				</g>
			</g>
			<path class="st6" d="M13.4,132.6c0,0,5.4,3.6,8.1,9.9"/>
			<path class="st6" d="M55.6,111.9c0,0-3.6,5.4-0.9,13.5"/>
			<path class="st6" d="M26.8,122.7c0,0,5.8,1.8,11-2.7"/>
			<path class="st6" d="M0.8,145.2c0,0-3.6,2.7-2.7,7.2"/>
			<path class="st6" d="M87,114.6c0,0,4.5,1.8,6.3,8.1"/>
			<path class="st6" d="M17.9,94c0,0,2.7-3.6,8.1-3.6s6.3,0.9,6.3,0.9s3.6-3.6,8.1-1.8"/>
			<path class="st7" d="M42.1,184.7c0,0,11.7,9.9,16.2,15.3"/>
			<path class="st7" d="M70.9,168.5c0,0,0.9,15.3,1.8,20.7"/>
			<line class="st7" x1="54.7" y1="176.6" x2="65.5" y2="200"/>
			<path class="st7" d="M66.4,215.2c0,0-3.6-3.6,0-7.2"/>
		</g>
		<g>
			<g>
				<circle class="st5" cx="582.9" cy="143.8" r="17.4"/>
				<circle class="st5" cx="542.4" cy="158.6" r="17.4"/>
				<g>
					<path class="st1" d="M573.7,110.4c-0.6,0-11.2-6.4-23-17.4c-11.3-10.6-11.9-13.3-11.9-13.3l-11.4,5.7c0,0,1.2,5.6,1.5,15.5
						c0.5,14.9,1.2,31.5,1.1,30.8l7.7-2c0,0-4.1-17.7,0.6-19.6c4.8-1.9,10.3,12.9,10.3,12.9l6.4-3.3c0,0-7.6-12.4-3.9-14.8
						c4-2.6,18.5,10.7,18.5,10.7L573.7,110.4z"/>
					<circle class="st2" cx="581.1" cy="126.9" r="19.5"/>
					<circle class="st2" cx="565" cy="159.3" r="19.5"/>
					<circle class="st2" cx="530.3" cy="146.4" r="19.5"/>
					<circle class="st2" cx="558.3" cy="133.7" r="20.9"/>
					<circle class="st2" cx="533.1" cy="82.6" r="6.3"/>
				</g>
			</g>
			<path class="st8" d="M575.3,140.8c0,0-4-2.6-5.9-7.3"/>
			<path class="st8" d="M544.2,156c0,0,2.6-4,0.7-9.9"/>
			<path class="st8" d="M565.4,148c0,0-4.3-1.3-8.1,2"/>
			<path class="st8" d="M584.6,131.5c0,0,2.6-2,2-5.3"/>
			<path class="st8" d="M591.2,152.7c0,0,2.6-2,2-5.3"/>
			<path class="st8" d="M521.1,154c0,0-3.3-1.3-4.6-5.9"/>
			<path class="st8" d="M572,169.2c0,0-2,2.6-5.9,2.6c-4,0-4.6-0.7-4.6-0.7s-2.6,2.6-5.9,1.3"/>
			<path class="st9" d="M554.2,102.4c0,0-8.6-7.3-11.9-11.2"/>
			<path class="st9" d="M533,114.3c0,0-0.7-11.2-1.3-15.2"/>
			<line class="st9" x1="544.9" y1="108.4" x2="537" y2="91.2"/>
			<path class="st9" d="M536.3,80c0,0,2.6,2.6,0,5.3"/>
		</g>
		<g>
			<path class="st5" d="M247.4,170.6c0,0-13.1,23-37.2,36.7c-21,11.9-51,11.2-51,11.2c-0.3,0.4-0.4,1-0.4,1.6l0,0c0,0,0,0,0,0
				c0,0.2,0,0.5,0.1,0.7c0,0.1,0,0.1,0,0.2c0,0.2,0.1,0.4,0.1,0.5c0,0.1,0.1,0.2,0.1,0.2c0.1,0.2,0.1,0.3,0.2,0.5
				c0,0.1,0.1,0.1,0.1,0.2c0.1,0.2,0.3,0.4,0.4,0.6c11.6,14.6,39,16.5,61.4,4.4c22.4-12.2,36-36.2,30-54c0-0.1-0.1-0.3-0.2-0.4l0,0
				l1.6-8l-3.5-2.6L247.4,170.6z"/>
			<path class="st10" d="M179.7,225.6c0,0,13.9,2.1,28.8-5.3"/>
			<path class="st10" d="M246.8,185.1c0,0-4.3,8.5-9.6,14.9"/>
		</g>
		<g>
			<path class="st5" d="M341.1,68.4c0,0,33.9-9.3,69.3,0.4c30.9,8.5,58.4,37.4,58.4,37.4c0.7-0.1,1.3-0.5,1.9-1.1l0,0c0,0,0,0,0,0
				c0.2-0.2,0.4-0.5,0.6-0.8c0.1-0.1,0.1-0.2,0.1-0.2c0.1-0.2,0.3-0.4,0.4-0.6c0.1-0.1,0.1-0.2,0.1-0.3c0.1-0.2,0.2-0.4,0.3-0.7
				c0-0.1,0.1-0.2,0.1-0.3c0.1-0.3,0.2-0.6,0.2-1c2.8-24.7-21.1-52.1-53.5-61.7c-32.4-9.6-67.8,0.2-78.9,22.5
				c-0.1,0.2-0.1,0.4-0.2,0.6l0,0l-9,6l0.8,5.7L341.1,68.4z"/>
			<path class="st11" d="M456.4,80.4c0,0-11-15-32-22"/>
			<path class="st11" d="M355.3,55.3c0,0,12-4,23-5"/>
		</g>
	</g>
	<g>
		<g>
			<rect x="647" y="-0.2" class="st0" width="689.9" height="252.4"/>
		</g>
		<g>
			<g id="XMLID_227_">
				<g id="XMLID_232_">

						<rect id="XMLID_242_" x="870.6" y="16.4" transform="matrix(0.4175 -0.9087 0.9087 0.4175 451.3345 828.3781)" class="st1" width="2.4" height="91.4"/>
					<path id="XMLID_241_" class="st1" d="M870.1,66.5c6.2-2,12.7,0.5,12.7,0.5s-3.7,5.9-9.9,8s-11.9,1.8-12.7-0.5
						S863.9,68.6,870.1,66.5z"/>
					<path id="XMLID_240_" class="st1" d="M886,73.8c6.2-2,12.7,0.5,12.7,0.5s-3.7,5.9-9.9,8c-6.2,2-11.9,1.8-12.7-0.5
						C875.4,79.4,879.8,75.9,886,73.8z"/>
					<path id="XMLID_239_" class="st1" d="M852.3,56.7c6.5-1.2,12.5,2.1,12.5,2.1s-4.4,5.4-10.8,6.6s-12.1,0.3-12.5-2.1
						S845.9,57.9,852.3,56.7z"/>
					<path id="XMLID_238_" class="st1" d="M832.1,48.6c6.5-1.2,12.5,2.1,12.5,2.1s-4.4,5.4-10.9,6.6s-12.1,0.3-12.5-2.1
						C820.8,52.8,825.7,49.8,832.1,48.6z"/>
					<path id="XMLID_237_" class="st1" d="M823,35.1c5.9,2.9,8.8,9.2,8.8,9.2s-6.7,1.7-12.7-1.1c-5.9-2.9-9.9-7-8.8-9.2
						C811.4,31.7,817.1,32.2,823,35.1z"/>
					<path id="XMLID_236_" class="st1" d="M893.7,60.1c2.8,5.9,1.1,12.7,1.1,12.7s-6.3-2.9-9.2-8.8c-2.8-5.9-3.3-11.6-1.1-12.7
						C886.7,50.2,890.8,54.1,893.7,60.1z"/>
					<path id="XMLID_235_" class="st1" d="M875.5,51.7c2.8,5.9,1.1,12.7,1.1,12.7s-6.3-2.9-9.2-8.8c-2.8-5.9-3.3-11.6-1.1-12.7
						S872.7,45.8,875.5,51.7z"/>
					<path id="XMLID_234_" class="st1" d="M856.1,42.8c2.8,5.9,1.1,12.7,1.1,12.7s-6.3-2.9-9.2-8.8c-2.8-5.9-3.3-11.6-1.1-12.7
						C849.2,32.9,853.3,36.9,856.1,42.8z"/>
					<path id="XMLID_233_" class="st1" d="M839.4,35.1c2.8,5.9,1.1,12.7,1.1,12.7s-6.3-2.9-9.2-8.8c-2.8-5.9-3.3-11.6-1.1-12.7
						S836.6,29.2,839.4,35.1z"/>
				</g>
				<g id="XMLID_228_">
					<path id="XMLID_231_" class="st2" d="M915.3,112.2c-13.7-6.3-19.7-22.5-13.4-36.2s22.5-19.7,36.2-13.4"/>
					<polygon id="XMLID_229_" class="st2" points="915.3,112.2 1051.6,144.8 938.1,62.6 					"/>
				</g>
			</g>
			<line class="st3" x1="953.6" y1="74.4" x2="941.9" y2="95.9"/>
			<line class="st3" x1="945.3" y1="119.9" x2="956.5" y2="98.9"/>
			<line class="st3" x1="974.1" y1="124.3" x2="983.9" y2="102.8"/>
			<line class="st3" x1="1052.3" y1="143.8" x2="1083.6" y2="155.5"/>
		</g>
		<g>
			<g id="XMLID_212_">
				<g id="XMLID_216_">

						<rect id="XMLID_226_" x="1110.9" y="217" transform="matrix(0.8839 -0.4677 0.4677 0.8839 30.2217 557.1403)" class="st1" width="52.5" height="1.4"/>
					<path id="XMLID_225_" class="st1" d="M1135.8,215.4c-1.2,3.6-4.7,5.6-4.7,5.6s-1.4-3.7-0.2-7.3c1.2-3.6,3.3-6.1,4.7-5.6
						C1136.9,208.6,1137,211.9,1135.8,215.4z"/>
					<path id="XMLID_224_" class="st1" d="M1126.9,220.1c-1.2,3.6-4.7,5.6-4.7,5.6s-1.4-3.7-0.2-7.3c1.2-3.6,3.3-6.1,4.7-5.6
						C1128,213.3,1128.1,216.6,1126.9,220.1z"/>
					<path id="XMLID_223_" class="st1" d="M1146.5,210.8c-1.7,3.4-5.3,5-5.3,5s-0.9-3.9,0.8-7.3c1.7-3.4,4.1-5.6,5.3-5
						S1148.1,207.4,1146.5,210.8z"/>
					<path id="XMLID_222_" class="st1" d="M1157.2,204.4c-1.7,3.4-5.4,5-5.4,5s-0.9-3.9,0.8-7.3c1.7-3.4,4.1-5.6,5.4-5
						C1159.2,197.8,1158.9,201,1157.2,204.4z"/>
					<path id="XMLID_221_" class="st1" d="M1166.5,204.9c-3.4,1.7-7.3,0.8-7.3,0.8s1.6-3.7,4.9-5.4c3.4-1.7,6.6-2.1,7.3-0.8
						C1172.1,200.8,1169.9,203.2,1166.5,204.9z"/>
					<path id="XMLID_220_" class="st1" d="M1130.5,228.4c-3.7-0.8-6.2-3.9-6.2-3.9s3.5-1.9,7.2-1.1c3.7,0.8,6.4,2.5,6.2,3.9
						C1137.4,228.7,1134.2,229.2,1130.5,228.4z"/>
					<path id="XMLID_219_" class="st1" d="M1140.6,223.1c-3.7-0.8-6.2-3.9-6.2-3.9s3.5-1.9,7.2-1.1c3.7,0.8,6.4,2.5,6.2,3.9
						C1147.6,223.3,1144.3,223.8,1140.6,223.1z"/>
					<path id="XMLID_218_" class="st1" d="M1151.5,217.3c-3.7-0.8-6.2-3.9-6.2-3.9s3.5-1.9,7.2-1.1c3.7,0.8,6.4,2.5,6.2,3.9
						C1158.4,217.6,1155.2,218.1,1151.5,217.3z"/>
					<path id="XMLID_217_" class="st1" d="M1160.8,212.4c-3.7-0.8-6.2-3.9-6.2-3.9s3.5-1.9,7.2-1.1c3.7,0.8,6.5,2.5,6.2,3.9
						C1167.7,212.7,1164.5,213.2,1160.8,212.4z"/>
				</g>
				<g id="XMLID_213_">
					<path id="XMLID_215_" class="st2" d="M1099.2,220.1c7.6-4,17.1-1.1,21.2,6.5c4,7.6,1.1,17.1-6.5,21.2"/>
					<polygon id="XMLID_214_" class="st2" points="1099.2,220.1 1036.8,270.8 1113.8,247.8 					"/>
				</g>
			</g>
			<line class="st4" x1="1103" y1="250.7" x2="1097.3" y2="237.9"/>
			<line class="st4" x1="1085.2" y1="231.1" x2="1090.9" y2="243.5"/>
			<line class="st4" x1="1073.2" y1="242.7" x2="1079.5" y2="254.6"/>
		</g>
		<g>
			<g>
				<circle class="st5" cx="692" cy="128.2" r="23.7"/>
				<circle class="st5" cx="747.1" cy="108.1" r="23.7"/>
				<g>
					<path class="st1" d="M704.5,173.6c0.9-0.1,15.2,8.7,31.2,23.7c15.3,14.3,16.2,18.1,16.2,18.1l15.6-7.8c0,0-1.6-7.6-2.1-21.1
						c-0.7-20.2-1.6-42.8-1.5-41.9l-10.5,2.7c0,0,5.5,24-0.8,26.6c-6.5,2.6-14.1-17.5-14.1-17.5l-8.7,4.5c0,0,10.3,16.9,5.3,20.1
						c-5.5,3.6-25.1-14.6-25.1-14.6L704.5,173.6z"/>
					<circle class="st2" cx="694.4" cy="151.2" r="26.6"/>
					<circle class="st2" cx="716.3" cy="107.1" r="26.6"/>
					<circle class="st2" cx="763.4" cy="124.6" r="26.6"/>
					<circle class="st2" cx="725.4" cy="142" r="28.4"/>
					<circle class="st2" cx="759.6" cy="211.4" r="8.5"/>
				</g>
			</g>
			<path class="st6" d="M702.3,132.3c0,0,5.4,3.6,8.1,9.9"/>
			<path class="st6" d="M744.5,111.7c0,0-3.6,5.4-0.9,13.5"/>
			<path class="st6" d="M715.7,122.4c0,0,5.8,1.8,11-2.7"/>
			<path class="st6" d="M689.7,144.9c0,0-3.6,2.7-2.7,7.2"/>
			<path class="st6" d="M680.7,116.1c0,0-3.6,2.7-2.7,7.2"/>
			<path class="st6" d="M775.9,114.3c0,0,4.5,1.8,6.3,8.1"/>
			<path class="st6" d="M706.8,93.7c0,0,2.7-3.6,8.1-3.6s6.3,0.9,6.3,0.9s3.6-3.6,8.1-1.8"/>
			<path class="st7" d="M731,184.4c0,0,11.7,9.9,16.2,15.3"/>
			<path class="st7" d="M759.8,168.2c0,0,0.9,15.3,1.8,20.7"/>
			<line class="st7" x1="743.6" y1="176.3" x2="754.4" y2="199.7"/>
			<path class="st7" d="M755.3,215c0,0-3.6-3.6,0-7.2"/>
		</g>
		<g>
			<g>
				<circle class="st5" cx="1271.8" cy="143.5" r="17.4"/>
				<circle class="st5" cx="1231.3" cy="158.3" r="17.4"/>
				<g>
					<path class="st1" d="M1262.6,110.2c-0.6,0-11.2-6.4-23-17.4c-11.3-10.6-11.9-13.3-11.9-13.3l-11.4,5.7c0,0,1.2,5.6,1.5,15.5
						c0.5,14.9,1.2,31.5,1.1,30.8l7.7-2c0,0-4.1-17.7,0.6-19.6c4.8-1.9,10.3,12.9,10.3,12.9l6.4-3.3c0,0-7.6-12.4-3.9-14.8
						c4-2.6,18.5,10.7,18.5,10.7L1262.6,110.2z"/>
					<circle class="st2" cx="1270" cy="126.6" r="19.5"/>
					<circle class="st2" cx="1253.9" cy="159" r="19.5"/>
					<circle class="st2" cx="1219.2" cy="146.2" r="19.5"/>
					<circle class="st2" cx="1247.2" cy="133.4" r="20.9"/>
					<circle class="st2" cx="1222" cy="82.3" r="6.3"/>
				</g>
			</g>
			<path class="st8" d="M1264.2,140.5c0,0-4-2.6-5.9-7.3"/>
			<path class="st8" d="M1233.1,155.7c0,0,2.6-4,0.7-9.9"/>
			<path class="st8" d="M1254.3,147.8c0,0-4.3-1.3-8.1,2"/>
			<path class="st8" d="M1273.5,131.2c0,0,2.6-2,2-5.3"/>
			<path class="st8" d="M1280.1,152.4c0,0,2.6-2,2-5.3"/>
			<path class="st8" d="M1210,153.7c0,0-3.3-1.3-4.6-5.9"/>
			<path class="st8" d="M1260.9,168.9c0,0-2,2.6-5.9,2.6c-4,0-4.6-0.7-4.6-0.7s-2.6,2.6-5.9,1.3"/>
			<path class="st9" d="M1243.1,102.2c0,0-8.6-7.3-11.9-11.2"/>
			<path class="st9" d="M1221.9,114.1c0,0-0.7-11.2-1.3-15.2"/>
			<line class="st9" x1="1233.8" y1="108.1" x2="1225.9" y2="90.9"/>
			<path class="st9" d="M1225.2,79.7c0,0,2.6,2.6,0,5.3"/>
		</g>
		<g>
			<path class="st5" d="M936.3,170.3c0,0-13.1,23-37.2,36.7c-21,11.9-51,11.2-51,11.2c-0.3,0.4-0.4,1-0.4,1.6l0,0c0,0,0,0,0,0
				c0,0.2,0,0.5,0.1,0.7c0,0.1,0,0.1,0,0.2c0,0.2,0.1,0.4,0.1,0.5c0,0.1,0.1,0.2,0.1,0.2c0.1,0.2,0.1,0.3,0.2,0.5
				c0,0.1,0.1,0.1,0.1,0.2c0.1,0.2,0.3,0.4,0.4,0.6c11.6,14.6,39,16.5,61.4,4.4c22.4-12.2,36-36.2,30-54c0-0.1-0.1-0.3-0.2-0.4l0,0
				l1.6-8l-3.5-2.6L936.3,170.3z"/>
			<path class="st10" d="M868.6,225.3c0,0,13.9,2.1,28.8-5.3"/>
			<path class="st10" d="M935.7,184.8c0,0-4.3,8.5-9.6,14.9"/>
		</g>
		<g>
			<path class="st5" d="M1030,68.2c0,0,33.9-9.3,69.3,0.4c30.9,8.5,58.4,37.4,58.4,37.4c0.7-0.1,1.3-0.5,1.9-1.1l0,0c0,0,0,0,0,0
				c0.2-0.2,0.4-0.5,0.6-0.8c0.1-0.1,0.1-0.2,0.1-0.2c0.1-0.2,0.3-0.4,0.4-0.6c0.1-0.1,0.1-0.2,0.1-0.3c0.1-0.2,0.2-0.4,0.3-0.7
				c0-0.1,0.1-0.2,0.1-0.3c0.1-0.3,0.2-0.6,0.2-1c2.8-24.7-21.1-52.1-53.5-61.7c-32.4-9.6-67.8,0.2-78.9,22.5
				c-0.1,0.2-0.1,0.4-0.2,0.6l0,0l-9,6l0.8,5.7L1030,68.2z"/>
			<path class="st11" d="M1145.3,80.1c0,0-11-15-32-22"/>
			<path class="st11" d="M1044.2,55.1c0,0,12-4,23-5"/>
		</g>
	</g>
	<g>
		<g>
			<rect x="1336.2" y="-0.2" class="st0" width="653.8" height="252.4"/>
		</g>
		<g>
			<g id="XMLID_197_">
				<g id="XMLID_201_">

						<rect id="XMLID_211_" x="1559.7" y="16.4" transform="matrix(0.4175 -0.9087 0.9087 0.4175 852.788 1454.6107)" class="st1" width="2.4" height="91.4"/>
					<path id="XMLID_210_" class="st1" d="M1559.3,66.5c6.2-2,12.7,0.5,12.7,0.5s-3.7,5.9-9.9,8c-6.2,2-11.9,1.8-12.7-0.5
						S1553,68.6,1559.3,66.5z"/>
					<path id="XMLID_209_" class="st1" d="M1575.2,73.8c6.2-2,12.7,0.5,12.7,0.5s-3.7,5.9-9.9,8c-6.2,2-11.9,1.8-12.7-0.5
						C1564.5,79.4,1569,75.9,1575.2,73.8z"/>
					<path id="XMLID_208_" class="st1" d="M1541.5,56.7c6.5-1.2,12.5,2.1,12.5,2.1s-4.4,5.4-10.8,6.6s-12.1,0.3-12.5-2.1
						S1535,57.9,1541.5,56.7z"/>
					<path id="XMLID_207_" class="st1" d="M1521.3,48.6c6.5-1.2,12.5,2.1,12.5,2.1s-4.4,5.4-10.9,6.6c-6.5,1.2-12.1,0.3-12.5-2.1
						S1514.9,49.8,1521.3,48.6z"/>
					<path id="XMLID_206_" class="st1" d="M1512.2,35.1c5.9,2.9,8.8,9.2,8.8,9.2s-6.7,1.7-12.7-1.1c-5.9-2.9-9.9-7-8.8-9.2
						C1500.6,31.7,1506.3,32.2,1512.2,35.1z"/>
					<path id="XMLID_205_" class="st1" d="M1582.8,60.1c2.8,5.9,1.1,12.7,1.1,12.7s-6.3-2.9-9.2-8.8c-2.8-5.9-3.3-11.6-1.1-12.7
						C1575.9,50.2,1580,54.1,1582.8,60.1z"/>
					<path id="XMLID_204_" class="st1" d="M1564.7,51.7c2.8,5.9,1.1,12.7,1.1,12.7s-6.3-2.9-9.2-8.8c-2.8-5.9-3.3-11.6-1.1-12.7
						C1557.7,41.8,1561.8,45.8,1564.7,51.7z"/>
					<path id="XMLID_203_" class="st1" d="M1545.3,42.8c2.8,5.9,1.1,12.7,1.1,12.7s-6.3-2.9-9.2-8.8c-2.8-5.9-3.3-11.6-1.1-12.7
						C1538.3,32.9,1542.4,36.9,1545.3,42.8z"/>
					<path id="XMLID_202_" class="st1" d="M1528.6,35.1c2.8,5.9,1.1,12.7,1.1,12.7s-6.3-2.9-9.2-8.8c-2.8-5.9-3.3-11.6-1.1-12.7
						C1521.6,25.2,1525.7,29.2,1528.6,35.1z"/>
				</g>
				<g id="XMLID_198_">
					<path id="XMLID_200_" class="st2" d="M1604.4,112.2c-13.7-6.3-19.7-22.5-13.4-36.2c6.3-13.7,22.5-19.7,36.2-13.4"/>
					<polygon id="XMLID_199_" class="st2" points="1604.4,112.2 1740.8,144.8 1627.2,62.6 					"/>
				</g>
			</g>
			<line class="st3" x1="1642.8" y1="74.4" x2="1631" y2="95.9"/>
			<line class="st3" x1="1634.4" y1="119.9" x2="1645.7" y2="98.9"/>
			<line class="st3" x1="1663.3" y1="124.3" x2="1673.1" y2="102.8"/>
			<line class="st3" x1="1741.5" y1="143.8" x2="1772.8" y2="155.5"/>
		</g>
		<g>
			<g id="XMLID_179_">
				<g id="XMLID_183_">

						<rect id="XMLID_196_" x="1800.1" y="217" transform="matrix(0.8839 -0.4677 0.4677 0.8839 110.2434 879.4634)" class="st1" width="52.5" height="1.4"/>
					<path id="XMLID_195_" class="st1" d="M1824.9,215.4c-1.2,3.6-4.7,5.6-4.7,5.6s-1.4-3.7-0.2-7.3c1.2-3.6,3.3-6.1,4.7-5.6
						C1826.1,208.6,1826.2,211.9,1824.9,215.4z"/>
					<path id="XMLID_194_" class="st1" d="M1816,220.1c-1.2,3.6-4.7,5.6-4.7,5.6s-1.4-3.7-0.2-7.3c1.2-3.6,3.3-6.1,4.7-5.6
						C1817.2,213.3,1817.3,216.6,1816,220.1z"/>
					<path id="XMLID_193_" class="st1" d="M1835.6,210.8c-1.7,3.4-5.3,5-5.3,5s-0.9-3.9,0.8-7.3c1.7-3.4,4.1-5.6,5.3-5
						S1837.3,207.4,1835.6,210.8z"/>
					<path id="XMLID_192_" class="st1" d="M1846.4,204.4c-1.7,3.4-5.4,5-5.4,5s-0.9-3.9,0.8-7.3c1.7-3.4,4.1-5.6,5.4-5
						C1848.4,197.8,1848.1,201,1846.4,204.4z"/>
					<path id="XMLID_188_" class="st1" d="M1855.7,204.9c-3.4,1.7-7.3,0.8-7.3,0.8s1.6-3.7,4.9-5.4c3.4-1.7,6.6-2.1,7.3-0.8
						C1861.3,200.8,1859.1,203.2,1855.7,204.9z"/>
					<path id="XMLID_187_" class="st1" d="M1819.7,228.4c-3.7-0.8-6.2-3.9-6.2-3.9s3.5-1.9,7.2-1.1c3.7,0.8,6.4,2.5,6.2,3.9
						C1826.6,228.7,1823.4,229.2,1819.7,228.4z"/>
					<path id="XMLID_186_" class="st1" d="M1829.8,223.1c-3.7-0.8-6.2-3.9-6.2-3.9s3.5-1.9,7.2-1.1c3.7,0.8,6.4,2.5,6.2,3.9
						C1836.7,223.3,1833.5,223.8,1829.8,223.1z"/>
					<path id="XMLID_185_" class="st1" d="M1840.6,217.3c-3.7-0.8-6.2-3.9-6.2-3.9s3.5-1.9,7.2-1.1c3.7,0.8,6.4,2.5,6.2,3.9
						C1847.6,217.6,1844.3,218.1,1840.6,217.3z"/>
					<path id="XMLID_184_" class="st1" d="M1850,212.4c-3.7-0.8-6.2-3.9-6.2-3.9s3.5-1.9,7.2-1.1c3.7,0.8,6.4,2.5,6.2,3.9
						C1856.9,212.7,1853.7,213.2,1850,212.4z"/>
				</g>
				<g id="XMLID_180_">
					<path id="XMLID_182_" class="st2" d="M1788.4,220.1c7.6-4,17.1-1.1,21.2,6.5c4,7.6,1.1,17.1-6.5,21.2"/>
					<polygon id="XMLID_181_" class="st2" points="1788.4,220.1 1725.9,270.8 1803,247.8 					"/>
				</g>
			</g>
			<line class="st4" x1="1792.2" y1="250.7" x2="1786.5" y2="237.9"/>
			<line class="st4" x1="1774.4" y1="231.1" x2="1780" y2="243.5"/>
			<line class="st4" x1="1762.3" y1="242.7" x2="1768.7" y2="254.6"/>
		</g>
		<g>
			<g>
				<circle class="st5" cx="1381.1" cy="128.2" r="23.7"/>
				<circle class="st5" cx="1436.2" cy="108.1" r="23.7"/>
				<g>
					<path class="st1" d="M1393.6,173.6c0.9-0.1,15.2,8.7,31.2,23.7c15.3,14.3,16.2,18.1,16.2,18.1l15.6-7.8c0,0-1.6-7.6-2.1-21.1
						c-0.7-20.2-1.6-42.8-1.5-41.9l-10.5,2.7c0,0,5.5,24-0.8,26.6c-6.5,2.6-14.1-17.5-14.1-17.5l-8.7,4.5c0,0,10.3,16.9,5.3,20.1
						c-5.5,3.6-25.1-14.6-25.1-14.6L1393.6,173.6z"/>
					<circle class="st2" cx="1383.6" cy="151.2" r="26.6"/>
					<circle class="st2" cx="1405.4" cy="107.1" r="26.6"/>
					<circle class="st2" cx="1452.6" cy="124.6" r="26.6"/>
					<circle class="st2" cx="1414.5" cy="142" r="28.4"/>
					<circle class="st2" cx="1448.7" cy="211.4" r="8.5"/>
				</g>
			</g>
			<path class="st6" d="M1391.4,132.3c0,0,5.4,3.6,8.1,9.9"/>
			<path class="st6" d="M1433.6,111.7c0,0-3.6,5.4-0.9,13.5"/>
			<path class="st6" d="M1404.9,122.4c0,0,5.8,1.8,11-2.7"/>
			<path class="st6" d="M1378.9,144.9c0,0-3.6,2.7-2.7,7.2"/>
			<path class="st6" d="M1369.9,116.1c0,0-3.6,2.7-2.7,7.2"/>
			<path class="st6" d="M1465.1,114.3c0,0,4.5,1.8,6.3,8.1"/>
			<path class="st6" d="M1395.9,93.7c0,0,2.7-3.6,8.1-3.6c5.4,0,6.3,0.9,6.3,0.9s3.6-3.6,8.1-1.8"/>
			<path class="st7" d="M1420.2,184.4c0,0,11.7,9.9,16.2,15.3"/>
			<path class="st7" d="M1448.9,168.2c0,0,0.9,15.3,1.8,20.7"/>
			<line class="st7" x1="1432.7" y1="176.3" x2="1443.5" y2="199.7"/>
			<path class="st7" d="M1444.4,215c0,0-3.6-3.6,0-7.2"/>
		</g>
		<g>
			<g>
				<circle class="st5" cx="1920.4" cy="158.3" r="17.4"/>
				<g>
					<path class="st1" d="M1951.7,110.2c-0.6,0-11.2-6.4-23-17.4c-11.3-10.6-11.9-13.3-11.9-13.3l-11.4,5.7c0,0,1.2,5.6,1.5,15.5
						c0.5,14.9,1.2,31.5,1.1,30.8l7.7-2c0,0-4.1-17.7,0.6-19.6c4.8-1.9,10.3,12.9,10.3,12.9l6.4-3.3c0,0-7.6-12.4-3.9-14.8
						c4-2.6,18.5,10.7,18.5,10.7L1951.7,110.2z"/>
					<circle class="st2" cx="1908.4" cy="146.2" r="19.5"/>
					<circle class="st2" cx="1936.4" cy="133.4" r="20.9"/>
					<circle class="st2" cx="1911.2" cy="82.3" r="6.3"/>
				</g>
			</g>
			<path class="st8" d="M1899.2,153.7c0,0-3.3-1.3-4.6-5.9"/>
			<path class="st9" d="M1932.2,102.2c0,0-8.6-7.3-11.9-11.2"/>
			<path class="st9" d="M1911.1,114.1c0,0-0.7-11.2-1.3-15.2"/>
			<line class="st9" x1="1923" y1="108.1" x2="1915" y2="90.9"/>
			<path class="st9" d="M1914.4,79.7c0,0,2.6,2.6,0,5.3"/>
		</g>
		<g>
			<path class="st5" d="M1625.5,170.3c0,0-13.1,23-37.2,36.7c-21,11.9-51,11.2-51,11.2c-0.3,0.4-0.4,1-0.4,1.6l0,0c0,0,0,0,0,0
				c0,0.2,0,0.5,0.1,0.7c0,0.1,0,0.1,0,0.2c0,0.2,0.1,0.4,0.1,0.5c0,0.1,0.1,0.2,0.1,0.2c0.1,0.2,0.1,0.3,0.2,0.5
				c0,0.1,0.1,0.1,0.1,0.2c0.1,0.2,0.3,0.4,0.4,0.6c11.6,14.6,39,16.5,61.4,4.4c22.4-12.2,36-36.2,30-54c0-0.1-0.1-0.3-0.2-0.4l0,0
				l1.6-8l-3.5-2.6L1625.5,170.3z"/>
			<path class="st10" d="M1557.7,225.3c0,0,13.9,2.1,28.8-5.3"/>
			<path class="st10" d="M1624.9,184.8c0,0-4.3,8.5-9.6,14.9"/>
		</g>
		<g>
			<path class="st5" d="M1719.2,68.2c0,0,33.9-9.3,69.3,0.4c30.9,8.5,58.4,37.4,58.4,37.4c0.7-0.1,1.3-0.5,1.9-1.1l0,0c0,0,0,0,0,0
				c0.2-0.2,0.4-0.5,0.6-0.8c0.1-0.1,0.1-0.2,0.1-0.2c0.1-0.2,0.3-0.4,0.4-0.6c0.1-0.1,0.1-0.2,0.1-0.3c0.1-0.2,0.2-0.4,0.3-0.7
				c0-0.1,0.1-0.2,0.1-0.3c0.1-0.3,0.2-0.6,0.2-1c2.8-24.7-21.1-52.1-53.5-61.7c-32.4-9.6-67.8,0.2-78.9,22.5
				c-0.1,0.2-0.1,0.4-0.2,0.6l0,0l-9,6l0.8,5.7L1719.2,68.2z"/>
			<path class="st11" d="M1834.4,80.1c0,0-11-15-32-22"/>
			<path class="st11" d="M1733.3,55.1c0,0,12-4,23-5"/>
		</g>
	</g>
</g>
</svg>
