<?xml version="1.0" encoding="utf-8"?>
<!-- Generator: Adobe Illustrator 21.1.0, SVG Export Plug-In . SVG Version: 6.00 Build 0)  -->
<svg version="1.1" id="Layer_1" xmlns="http://www.w3.org/2000/svg" xmlns:xlink="http://www.w3.org/1999/xlink" x="0px" y="0px"
	 viewBox="0 0 30 30" style="enable-background:new 0 0 30 30;" xml:space="preserve">
<style type="text/css">
	.st0{fill:#F2ECD3;}
	.st1{fill:#C6C3B5;}
	.st2{fill:#D8D4C0;}
	.st3{fill:#C4C1B3;}
	.st4{fill:#B7B4A7;}
	.st5{clip-path:url(#XMLID_2_);fill:#FFE878;}
	.st6{clip-path:url(#XMLID_2_);fill:#FFCF7B;}
	.st7{fill:#EFD875;}
	.st8{fill:#6F7548;}
	.st9{fill:#FF7300;}
	.st10{fill:#E86605;}
	.st11{fill:#A00B44;}
	.st12{fill:#46492E;}
	.st13{fill:#870B3D;}
	.st14{fill:none;stroke:#4E5927;stroke-width:0.3061;stroke-miterlimit:10;}
	.st15{fill:#4E5927;}
	.st16{fill:#C92020;}
	.st17{fill:#B72323;}
	.st18{fill:#EACC39;}
	.st19{fill:#CEB034;}
	.st20{fill:#CEB757;}
	.st21{fill:#B5A252;}
	.st22{fill:#EDDC96;}
	.st23{fill:#D6C88E;}
	.st24{fill:#66521F;}
	.st25{opacity:0.3;fill:#443207;}
	.st26{fill:#725A26;}
	.st27{fill:#E2C386;}
	.st28{opacity:0.2;}
	.st29{fill:#937A47;}
	.st30{fill:#AAA394;}
	.st31{opacity:0.5;fill:#969187;}
	.st32{fill:#C1BEB8;}
	.st33{fill:#9B9791;}
	.st34{fill:#AAA8A5;}
	.st35{fill:#A5A29D;}
	.st36{fill:#995E64;}
	.st37{fill:#934448;}
	.st38{fill:#EFE4E6;}
	.st39{fill:#704725;}
	.st40{fill:#845431;}
	.st41{fill:#F2AFBF;}
	.st42{fill:#F70835;}
	.st43{fill:#EFCAD4;}
	.st44{fill:#C6284E;}
</style>
<g id="XMLID_506_">
	<path id="XMLID_504_" class="st36" d="M0.7,16.2v2.8c0,0,0.8,1.3,2.9,1.8c1.5,0.4,2.4-0.7,4.8,0c2.4,0.7,5.8,3.3,11.8,2.9
		c6-0.4,8.8-3.7,8.8-3.7v-3.5L0.7,16.2z"/>
	<path id="XMLID_507_" class="st37" d="M19.8,11.3L19.8,11.3c0,0-0.1,0-0.3,0c-0.1,0-0.3,0-0.4,0c-0.5,0-0.9,0-1.4,0.1
		C14.1,11.4,6.4,11.9,3,13.3c-1.5,0.6-3.5,1.9-1.8,3.7c1.8,1.9,4.1-0.2,7.2,1c1.1,0.4,2.1,0.8,2.9,1.2c0.8,0.5,1.7,0.9,2.8,1.2h0
		l0,0c1.5,0.4,3.2,0.7,5,0.7c5.5,0,9.9-2.2,9.9-4.9C29,13.6,24.9,11.5,19.8,11.3z"/>
	<ellipse id="XMLID_503_" class="st38" cx="19" cy="16.2" rx="1.8" ry="1.1"/>
</g>
</svg>
