<?xml version="1.0" encoding="utf-8"?>
<!-- Generator: Adobe Illustrator 21.1.0, SVG Export Plug-In . SVG Version: 6.00 Build 0)  -->
<svg version="1.1" id="Layer_1" xmlns="http://www.w3.org/2000/svg" xmlns:xlink="http://www.w3.org/1999/xlink" x="0px" y="0px"
	 viewBox="0 0 30 30" style="enable-background:new 0 0 30 30;" xml:space="preserve">
<style type="text/css">
	.st0{fill:#F2ECD3;}
	.st1{fill:#C6C3B5;}
	.st2{fill:#D8D4C0;}
	.st3{fill:#C4C1B3;}
	.st4{fill:#B7B4A7;}
	.st5{clip-path:url(#XMLID_2_);fill:#FFE878;}
	.st6{clip-path:url(#XMLID_2_);fill:#FFCF7B;}
	.st7{fill:#EFD875;}
	.st8{fill:#6F7548;}
	.st9{fill:#FF7300;}
	.st10{fill:#E86605;}
	.st11{fill:#A00B44;}
	.st12{fill:#46492E;}
	.st13{fill:#870B3D;}
	.st14{fill:none;stroke:#4E5927;stroke-width:0.3061;stroke-miterlimit:10;}
	.st15{fill:#4E5927;}
	.st16{fill:#C92020;}
	.st17{fill:#B72323;}
	.st18{fill:#EACC39;}
	.st19{fill:#CEB034;}
	.st20{fill:#CEB757;}
	.st21{fill:#B5A252;}
	.st22{fill:#EDDC96;}
	.st23{fill:#D6C88E;}
	.st24{fill:#66521F;}
	.st25{opacity:0.3;fill:#443207;}
	.st26{fill:#725A26;}
	.st27{fill:#E2C386;}
	.st28{opacity:0.2;}
	.st29{fill:#937A47;}
	.st30{fill:#AAA394;}
	.st31{opacity:0.5;fill:#969187;}
	.st32{fill:#C1BEB8;}
	.st33{fill:#9B9791;}
	.st34{fill:#AAA8A5;}
	.st35{fill:#A5A29D;}
	.st36{fill:#995E64;}
	.st37{fill:#934448;}
	.st38{fill:#EFE4E6;}
	.st39{fill:#704725;}
	.st40{fill:#845431;}
	.st41{fill:#F2AFBF;}
	.st42{fill:#F70835;}
	.st43{fill:#EFCAD4;}
	.st44{fill:#C6284E;}
</style>
<g id="XMLID_456_">
	<g id="XMLID_446_">
		
			<ellipse id="XMLID_442_" transform="matrix(0.9724 -0.2334 0.2334 0.9724 -3.0007 2.4386)" class="st24" cx="8.8" cy="13.9" rx="8" ry="5"/>
		
			<rect id="XMLID_59_" x="7.9" y="13.1" transform="matrix(0.9724 -0.2333 0.2333 0.9724 -2.8095 2.9528)" class="st25" width="6.4" height="0.4"/>
		
			<rect id="XMLID_58_" x="3.6" y="12.1" transform="matrix(0.9724 -0.2333 0.2333 0.9724 -2.6524 2.2859)" class="st25" width="9.4" height="0.4"/>
		
			<rect id="XMLID_57_" x="6.9" y="16.3" transform="matrix(0.9724 -0.2333 0.2333 0.9724 -3.6014 2.6774)" class="st25" width="5.3" height="0.4"/>
		
			<rect id="XMLID_56_" x="5.2" y="15.3" transform="matrix(0.9724 -0.2333 0.2333 0.9724 -3.405 2.1967)" class="st25" width="4.8" height="0.4"/>
		
			<rect id="XMLID_54_" x="12.1" y="13.8" transform="matrix(0.9724 -0.2333 0.2333 0.9724 -2.895 3.5795)" class="st25" width="3.1" height="0.4"/>
		
			<rect id="XMLID_53_" x="6.5" y="10.3" transform="matrix(0.9724 -0.2333 0.2333 0.9724 -2.2139 2.3491)" class="st25" width="4.7" height="0.4"/>
	</g>
	<g id="XMLID_461_">
		
			<ellipse id="XMLID_471_" transform="matrix(0.1632 -0.9866 0.9866 0.1632 2.6283 33.5147)" class="st26" cx="21.1" cy="15.2" rx="3.9" ry="8"/>
		
			<rect id="XMLID_52_" x="18.5" y="11.6" transform="matrix(0.1632 -0.9866 0.9866 0.1632 1.0752 30.9203)" class="st25" width="0.4" height="6.4"/>
		
			<rect id="XMLID_51_" x="20.7" y="11.8" transform="matrix(0.1632 -0.9866 0.9866 0.1632 1.3094 34.4467)" class="st25" width="0.4" height="9.4"/>
		
			<rect id="XMLID_50_" x="21.1" y="10.4" transform="matrix(0.1632 -0.9866 0.9866 0.1632 4.9471 32.0188)" class="st25" width="0.4" height="5.3"/>
		
			<rect id="XMLID_49_" x="22.5" y="12.1" transform="matrix(0.1632 -0.9866 0.9866 0.1632 4.7492 34.5951)" class="st25" width="0.4" height="4.8"/>
		
			<rect id="XMLID_47_" x="16.4" y="11.9" transform="matrix(0.1632 -0.9866 0.9866 0.1632 0.5813 27.6329)" class="st25" width="0.4" height="3.1"/>
		
			<rect id="XMLID_29_" x="19.6" y="15.2" transform="matrix(0.1632 -0.9866 0.9866 0.1632 -0.7108 34.3017)" class="st25" width="0.4" height="4.7"/>
	</g>
	<g id="XMLID_454_">
		
			<ellipse id="XMLID_453_" transform="matrix(0.9653 -0.2613 0.2613 0.9653 -3.9097 4.8968)" class="st27" cx="16.5" cy="17.2" rx="4.1" ry="2.6"/>
		<g id="XMLID_23_" class="st28">
			<line id="XMLID_45_" class="st27" x1="12.5" y1="18.2" x2="19.3" y2="16.4"/>
			<path id="XMLID_46_" class="st29" d="M12.6,18.5c2.3-0.6,4.5-1.2,6.8-1.8c0.3-0.1,0.2-0.6-0.1-0.5c-2.3,0.6-4.5,1.2-6.8,1.8
				C12.1,18,12.3,18.6,12.6,18.5L12.6,18.5z"/>
		</g>
	</g>
	<g id="XMLID_457_">
		<ellipse id="XMLID_473_" class="st27" cx="12" cy="19.3" rx="3.4" ry="2.1"/>
		<g id="XMLID_42_" class="st28">
			<path id="XMLID_44_" class="st29" d="M8.7,19.6c1.9,0,3.9,0,5.8,0c0.4,0,0.4-0.6,0-0.6c-1.9,0-3.9,0-5.8,0
				C8.3,19,8.3,19.6,8.7,19.6L8.7,19.6z"/>
		</g>
	</g>
	<g id="XMLID_459_">
		
			<ellipse id="XMLID_483_" transform="matrix(0.5552 -0.8317 0.8317 0.5552 -8.2582 24.3073)" class="st27" cx="18.6" cy="19.9" rx="2.1" ry="3.4"/>
		<g id="XMLID_189_" class="st28">
			<line id="XMLID_190_" class="st27" x1="15.8" y1="18" x2="20.6" y2="21.2"/>
			<path id="XMLID_191_" class="st29" d="M15.7,18.2c1.6,1.1,3.2,2.2,4.8,3.2c0.3,0.2,0.6-0.3,0.3-0.5c-1.6-1.1-3.2-2.2-4.8-3.2
				C15.6,17.6,15.4,18.1,15.7,18.2L15.7,18.2z"/>
		</g>
	</g>
</g>
</svg>
