<?xml version="1.0" encoding="utf-8"?>
<!-- Generator: Adobe Illustrator 21.1.0, SVG Export Plug-In . SVG Version: 6.00 Build 0)  -->
<svg version="1.1" id="Layer_1" xmlns="http://www.w3.org/2000/svg" xmlns:xlink="http://www.w3.org/1999/xlink" x="0px" y="0px"
	 viewBox="0 0 30 30" style="enable-background:new 0 0 30 30;" xml:space="preserve">
<style type="text/css">
	.st0{fill:#F2ECD3;}
	.st1{fill:#C6C3B5;}
	.st2{fill:#D8D4C0;}
	.st3{fill:#C4C1B3;}
	.st4{fill:#B7B4A7;}
	.st5{clip-path:url(#XMLID_2_);fill:#FFE878;}
	.st6{clip-path:url(#XMLID_2_);fill:#FFCF7B;}
	.st7{fill:#EFD875;}
	.st8{fill:#6F7548;}
	.st9{fill:#FF7300;}
	.st10{fill:#E86605;}
	.st11{fill:#A00B44;}
	.st12{fill:#46492E;}
	.st13{fill:#870B3D;}
	.st14{fill:none;stroke:#4E5927;stroke-width:0.3061;stroke-miterlimit:10;}
	.st15{fill:#4E5927;}
	.st16{fill:#C92020;}
	.st17{fill:#B72323;}
	.st18{fill:#EACC39;}
	.st19{fill:#CEB034;}
	.st20{fill:#CEB757;}
	.st21{fill:#B5A252;}
	.st22{fill:#EDDC96;}
	.st23{fill:#D6C88E;}
	.st24{fill:#66521F;}
	.st25{opacity:0.3;fill:#443207;}
	.st26{fill:#725A26;}
	.st27{fill:#E2C386;}
	.st28{opacity:0.2;}
	.st29{fill:#937A47;}
	.st30{fill:#AAA394;}
	.st31{opacity:0.5;fill:#969187;}
	.st32{fill:#C1BEB8;}
	.st33{fill:#9B9791;}
	.st34{fill:#AAA8A5;}
	.st35{fill:#A5A29D;}
	.st36{fill:#995E64;}
	.st37{fill:#934448;}
	.st38{fill:#EFE4E6;}
	.st39{fill:#704725;}
	.st40{fill:#845431;}
	.st41{fill:#F2AFBF;}
	.st42{fill:#F70835;}
	.st43{fill:#EFCAD4;}
	.st44{fill:#C6284E;}
</style>
<g id="XMLID_502_">
	<g id="XMLID_505_">
		<g id="XMLID_472_">
			<path id="XMLID_496_" class="st30" d="M22.1,4.8c-1.7-3.2-7-3.8-11.7-1.2S3.2,10.8,4.9,14c1.2,2.2,4.1,3.2,7.3,2.7l1.1,2.1
				c0.3,0.5,1.1,0.6,1.8,0.2l4.7-2.5c0.7-0.4,1.1-1.1,0.8-1.6l-1-1.9C22.4,10.5,23.4,7.2,22.1,4.8z"/>
			<path id="XMLID_10_" class="st31" d="M13.1,14.8c-2.2-1.1-4.5-2.1-6.7-3.2c-0.5-0.2-1,0.5-0.4,0.8c2.2,1.1,4.5,2.1,6.7,3.2
				C13.1,15.8,13.6,15,13.1,14.8L13.1,14.8z"/>
			<path id="XMLID_12_" class="st31" d="M18.7,12.4c0.3-2.4,0.7-4.9,1-7.3c0.1-0.6-0.8-0.8-0.9-0.2c-0.3,2.4-0.7,4.9-1,7.3
				C17.8,12.7,18.6,13,18.7,12.4L18.7,12.4z"/>
			<path id="XMLID_13_" class="st31" d="M14.2,13.5c-2.1-2.1-4.3-4.3-6.4-6.4c-0.4-0.4-1,0.2-0.6,0.6c2.1,2.1,4.3,4.3,6.4,6.4
				C14,14.6,14.6,13.9,14.2,13.5L14.2,13.5z"/>
			<path id="XMLID_14_" class="st31" d="M16.9,12.2c-0.6-3-1.2-5.9-1.8-8.9c-0.1-0.6-1-0.3-0.9,0.2c0.6,3,1.2,5.9,1.8,8.9
				C16.2,13,17,12.8,16.9,12.2L16.9,12.2z"/>
			<path id="XMLID_230_" class="st31" d="M15.5,12.8c-1.5-2.7-3-5.5-4.4-8.2C10.8,4,10,4.5,10.3,5c1.5,2.7,3,5.5,4.4,8.2
				C15,13.7,15.8,13.3,15.5,12.8L15.5,12.8z"/>
		</g>
		
			<ellipse id="XMLID_500_" transform="matrix(0.8803 -0.4744 0.4744 0.8803 -5.1052 9.4178)" class="st32" cx="16.1" cy="14.8" rx="2.8" ry="1.9"/>
	</g>
	<g id="XMLID_605_">
		<g id="XMLID_645_">
			<path id="XMLID_647_" class="st33" d="M25.1,23.4c0,0-6,4.1-12.4,2.8C6.3,24.9,1.8,19.9,2,18.7c0.3-2,6-4.1,12.4-2.8
				S25.1,23.4,25.1,23.4z"/>
			<polygon id="XMLID_646_" class="st33" points="27.3,28 20.6,22.4 28.7,19.9 			"/>
		</g>
		<path id="XMLID_644_" class="st34" d="M9.4,15.7c0.6,0.1,1,0.7,0.9,1.2c-0.1,0.5-0.6,0.9-1.2,0.8"/>
		<path id="XMLID_643_" class="st34" d="M9.1,17.7c0.6,0.1,1,0.7,0.9,1.2s-0.6,0.9-1.2,0.8"/>
		<path id="XMLID_642_" class="st34" d="M8.7,19.8c0.6,0.1,1,0.7,0.9,1.2c-0.1,0.5-0.6,0.9-1.2,0.8"/>
		<path id="XMLID_641_" class="st34" d="M8.4,22c0.6,0.1,1,0.7,0.9,1.2c-0.1,0.5-0.6,0.9-1.2,0.8"/>
		<path id="XMLID_640_" class="st34" d="M7.8,16.5c0.6,0.1,1,0.7,0.9,1.2S8,18.6,7.4,18.5"/>
		<path id="XMLID_639_" class="st34" d="M7.4,18.6c0.6,0.1,1,0.7,0.9,1.2c-0.1,0.5-0.6,0.9-1.2,0.8"/>
		<path id="XMLID_638_" class="st34" d="M7.1,20.7c0.6,0.1,1,0.7,0.9,1.2c-0.1,0.5-0.6,0.9-1.2,0.8"/>
		<path id="XMLID_637_" class="st34" d="M10.9,16.7c0.6,0.1,1,0.7,0.9,1.2c-0.1,0.5-0.6,0.9-1.2,0.8"/>
		<path id="XMLID_636_" class="st34" d="M11.1,15.4c0.6,0.1,1,0.7,0.9,1.2c-0.1,0.5-0.6,0.9-1.2,0.8"/>
		<path id="XMLID_635_" class="st34" d="M10.6,18.8c0.6,0.1,1,0.7,0.9,1.2s-0.6,0.9-1.2,0.8"/>
		<path id="XMLID_634_" class="st34" d="M10.2,20.9c0.6,0.1,1,0.7,0.9,1.2c-0.1,0.5-0.6,0.9-1.2,0.8"/>
		<path id="XMLID_633_" class="st34" d="M9.8,23c0.6,0.1,1,0.7,0.9,1.2c-0.1,0.5-0.6,0.9-1.2,0.8"/>
		<path id="XMLID_632_" class="st34" d="M12.5,17.4c0.6,0.1,1,0.7,0.9,1.2c-0.1,0.5-0.6,0.9-1.2,0.8"/>
		<path id="XMLID_631_" class="st34" d="M12.2,19.5c0.6,0.1,1,0.7,0.9,1.2c-0.1,0.5-0.6,0.9-1.2,0.8"/>
		<path id="XMLID_630_" class="st34" d="M11.8,21.6c0.6,0.1,1,0.7,0.9,1.2s-0.6,0.9-1.2,0.8"/>
		<path id="XMLID_629_" class="st34" d="M11.5,23.7c0.6,0.1,1,0.7,0.9,1.2c-0.1,0.5-0.6,0.9-1.2,0.8"/>
		<path id="XMLID_628_" class="st34" d="M14.5,16.8c0.6,0.1,1,0.7,0.9,1.2c-0.1,0.5-0.6,0.9-1.2,0.8"/>
		<path id="XMLID_627_" class="st34" d="M14.1,18.9c0.6,0.1,1,0.7,0.9,1.2c-0.1,0.5-0.6,0.9-1.2,0.8"/>
		<path id="XMLID_626_" class="st34" d="M13.8,20.9c0.6,0.1,1,0.7,0.9,1.2c-0.1,0.5-0.6,0.9-1.2,0.8"/>
		<path id="XMLID_625_" class="st34" d="M13.4,23.1c0.6,0.1,1,0.7,0.9,1.2c-0.1,0.5-0.6,0.9-1.2,0.8"/>
		<path id="XMLID_624_" class="st34" d="M15.9,18.4c0.6,0.1,1,0.7,0.9,1.2s-0.6,0.9-1.2,0.8"/>
		<path id="XMLID_623_" class="st34" d="M15.6,20.4c0.6,0.1,1,0.7,0.9,1.2c-0.1,0.5-0.6,0.9-1.2,0.8"/>
		<path id="XMLID_622_" class="st34" d="M15.2,22.5c0.6,0.1,1,0.7,0.9,1.2c-0.1,0.5-0.6,0.9-1.2,0.8"/>
		<path id="XMLID_621_" class="st34" d="M17.5,17.4c0.6,0.1,1,0.7,0.9,1.2s-0.6,0.9-1.2,0.8"/>
		<path id="XMLID_620_" class="st34" d="M17.1,19.5c0.6,0.1,1,0.7,0.9,1.2c-0.1,0.5-0.6,0.9-1.2,0.8"/>
		<path id="XMLID_619_" class="st34" d="M16.8,21.6c0.6,0.1,1,0.7,0.9,1.2c-0.1,0.5-0.6,0.9-1.2,0.8"/>
		<path id="XMLID_618_" class="st34" d="M16.4,23.7c0.6,0.1,1,0.7,0.9,1.2c-0.1,0.5-0.6,0.9-1.2,0.8"/>
		<path id="XMLID_617_" class="st34" d="M18.9,18.6c0.6,0.1,1,0.7,0.9,1.2c-0.1,0.5-0.6,0.9-1.2,0.8"/>
		<path id="XMLID_616_" class="st34" d="M18.6,20.7c0.6,0.1,1,0.7,0.9,1.2c-0.1,0.5-0.6,0.9-1.2,0.8"/>
		<path id="XMLID_615_" class="st34" d="M18.2,22.8c0.6,0.1,1,0.7,0.9,1.2c-0.1,0.5-0.6,0.9-1.2,0.8"/>
		<path id="XMLID_614_" class="st34" d="M20.3,19.7c0.6,0.1,1,0.7,0.9,1.2c-0.1,0.5-0.6,0.9-1.2,0.8"/>
		<path id="XMLID_613_" class="st34" d="M19.9,21.8c0.6,0.1,1,0.7,0.9,1.2c-0.1,0.5-0.6,0.9-1.2,0.8"/>
		<path id="XMLID_612_" class="st34" d="M19.6,24c0.6,0.1,1,0.7,0.9,1.2c-0.1,0.5-0.6,0.9-1.2,0.8"/>
		<path id="XMLID_611_" class="st34" d="M21.6,20.9c0.6,0.1,1,0.7,0.9,1.2s-0.6,0.9-1.2,0.8"/>
		<path id="XMLID_610_" class="st34" d="M21.2,23c0.6,0.1,1,0.7,0.9,1.2s-0.6,0.9-1.2,0.8"/>
		<path id="XMLID_609_" class="st35" d="M5.3,18.6c0,0.3-0.3,0.4-0.6,0.4c-0.3-0.1-0.5-0.3-0.4-0.6c0-0.3,0.3-0.4,0.6-0.4
			S5.3,18.3,5.3,18.6z"/>
	</g>
</g>
</svg>
