<?xml version="1.0" encoding="utf-8"?>
<!-- Generator: Adobe Illustrator 21.1.0, SVG Export Plug-In . SVG Version: 6.00 Build 0)  -->
<svg version="1.1" id="Layer_1" xmlns="http://www.w3.org/2000/svg" xmlns:xlink="http://www.w3.org/1999/xlink" x="0px" y="0px"
	 viewBox="0 0 30 30" style="enable-background:new 0 0 30 30;" xml:space="preserve">
<style type="text/css">
	.st0{fill:#F2ECD3;}
	.st1{fill:#C6C3B5;}
	.st2{fill:#D8D4C0;}
	.st3{fill:#C4C1B3;}
	.st4{fill:#B7B4A7;}
	.st5{clip-path:url(#XMLID_2_);fill:#FFE878;}
	.st6{clip-path:url(#XMLID_2_);fill:#FFCF7B;}
	.st7{fill:#EFD875;}
	.st8{fill:#6F7548;}
	.st9{fill:#FF7300;}
	.st10{fill:#E86605;}
	.st11{fill:#A00B44;}
	.st12{fill:#46492E;}
	.st13{fill:#870B3D;}
	.st14{fill:none;stroke:#4E5927;stroke-width:0.3061;stroke-miterlimit:10;}
	.st15{fill:#4E5927;}
	.st16{fill:#C92020;}
	.st17{fill:#B72323;}
	.st18{fill:#EACC39;}
	.st19{fill:#CEB034;}
	.st20{fill:#CEB757;}
	.st21{fill:#B5A252;}
	.st22{fill:#EDDC96;}
	.st23{fill:#D6C88E;}
	.st24{fill:#66521F;}
	.st25{opacity:0.3;fill:#443207;}
	.st26{fill:#725A26;}
	.st27{fill:#E2C386;}
	.st28{opacity:0.2;}
	.st29{fill:#937A47;}
	.st30{fill:#AAA394;}
	.st31{opacity:0.5;fill:#969187;}
	.st32{fill:#C1BEB8;}
	.st33{fill:#9B9791;}
	.st34{fill:#AAA8A5;}
	.st35{fill:#A5A29D;}
	.st36{fill:#995E64;}
	.st37{fill:#934448;}
	.st38{fill:#EFE4E6;}
	.st39{fill:#704725;}
	.st40{fill:#845431;}
	.st41{fill:#F2AFBF;}
	.st42{fill:#F70835;}
	.st43{fill:#EFCAD4;}
	.st44{fill:#C6284E;}
</style>
<g id="XMLID_332_">
	<g id="XMLID_376_">
		<g id="XMLID_381_">
			
				<rect id="XMLID_135_" x="14.4" y="7" transform="matrix(1.231817e-02 -0.9999 0.9999 1.231817e-02 11.8406 26.2563)" class="st8" width="9.7" height="0.3"/>
			<path id="XMLID_390_" class="st8" d="M18.7,7.2c0.5,0.5,0.5,1.2,0.5,1.2S18.5,8.3,18,7.8c-0.5-0.5-0.7-1.1-0.5-1.2
				C17.7,6.4,18.3,6.6,18.7,7.2z"/>
			<path id="XMLID_389_" class="st8" d="M18.7,9c0.5,0.5,0.5,1.2,0.5,1.2s-0.7-0.1-1.2-0.6c-0.5-0.5-0.7-1.1-0.5-1.2
				C17.7,8.2,18.2,8.5,18.7,9z"/>
			<path id="XMLID_388_" class="st8" d="M18.9,5c0.4,0.6,0.3,1.3,0.3,1.3s-0.7-0.2-1.1-0.8s-0.5-1.2-0.3-1.3C18,4.1,18.5,4.5,18.9,5
				z"/>
			<path id="XMLID_387_" class="st8" d="M18.8,2.7C19.2,3.3,19.2,4,19.2,4s-0.7-0.2-1.1-0.8c-0.4-0.6-0.5-1.2-0.3-1.3
				S18.4,2.2,18.8,2.7z"/>
			<path id="XMLID_386_" class="st8" d="M19.7,1.3c0,0.7-0.5,1.2-0.5,1.2s-0.5-0.6-0.4-1.3S19,0,19.3,0S19.8,0.6,19.7,1.3z"/>
			<path id="XMLID_385_" class="st8" d="M20.4,9.2c-0.5,0.5-1.2,0.6-1.2,0.6s0-0.7,0.5-1.3s1-0.8,1.2-0.6C21,8.1,20.8,8.6,20.4,9.2z
				"/>
			<path id="XMLID_384_" class="st8" d="M20.4,7c-0.5,0.5-1.2,0.6-1.2,0.6s0-0.7,0.5-1.3s1-0.8,1.2-0.6C21,6,20.8,6.5,20.4,7z"/>
			<path id="XMLID_383_" class="st8" d="M20.4,4.8c-0.5,0.5-1.2,0.6-1.2,0.6s0-0.7,0.5-1.3s1-0.8,1.2-0.6S20.9,4.3,20.4,4.8z"/>
			<path id="XMLID_382_" class="st8" d="M20.4,2.9c-0.5,0.5-1.2,0.6-1.2,0.6s0-0.7,0.5-1.3c0.5-0.5,1-0.8,1.2-0.6S20.9,2.3,20.4,2.9
				z"/>
		</g>
		<g id="XMLID_378_">
			<path id="XMLID_380_" class="st9" d="M16.3,13.5c0-1.6,1.3-2.9,2.9-2.8c1.6,0,2.9,1.3,2.8,2.9"/>
			<polygon id="XMLID_379_" class="st9" points="16.3,13.5 19,28 22,13.5 			"/>
		</g>
		<path id="XMLID_377_" class="st10" d="M19,28L22,13.5c0-1.6-1.3-2.9-2.8-2.9"/>
	</g>
	<g id="XMLID_341_">
		
			<rect id="XMLID_134_" x="9.3" y="25.7" transform="matrix(1.231817e-02 -0.9999 0.9999 1.231817e-02 -13.2727 38.2843)" class="st11" width="6.9" height="0.3"/>
		<g id="XMLID_344_">
			<g id="XMLID_347_">
				
					<rect id="XMLID_133_" x="8.1" y="10.5" transform="matrix(1.231817e-02 -0.9999 0.9999 1.231817e-02 2.1292 23.3417)" class="st11" width="9.7" height="0.3"/>
				<path id="XMLID_351_" class="st12" d="M14,4.3c0,1.7-1.1,3-1.1,3s-1.1-1.4-1-3s0.5-3,1.1-3C13.6,1.3,14.1,2.7,14,4.3z"/>
				<path id="XMLID_350_" class="st12" d="M15.3,9c-0.7,1.2-2.2,1.5-2.2,1.5S12.7,9,13.4,7.8c0.7-1.2,1.7-1.8,2.2-1.5
					C16.2,6.7,16,7.8,15.3,9z"/>
				<path id="XMLID_349_" class="st12" d="M15.5,12.4c-1.2,0.7-2.7,0.3-2.7,0.3s0.5-1.4,1.8-2.1s2.4-0.8,2.7-0.3
					C17.5,10.8,16.7,11.7,15.5,12.4z"/>
				<path id="XMLID_348_" class="st12" d="M11.3,9.1c1.2,0.7,1.6,2.2,1.6,2.2s-1.5,0.2-2.7-0.5S8.4,9,8.6,8.5
					C8.9,8.1,10.1,8.3,11.3,9.1z"/>
			</g>
			<path id="XMLID_346_" class="st11" d="M18,19.7c0,3.3-5.2,5.9-5.2,5.9s-5.1-2.7-5.1-6s2.4-5.9,5.2-5.9C15.7,13.7,18,16.4,18,19.7
				z"/>
			<path id="XMLID_345_" class="st13" d="M12.9,13.7c2.8,0,5.1,2.7,5.1,6c0,3.3-5.2,5.9-5.2,5.9"/>
		</g>
		
			<rect id="XMLID_132_" x="12.9" y="26.5" transform="matrix(0.9041 -0.4272 0.4272 0.9041 -10.4239 8.2065)" class="st11" width="0.3" height="1.6"/>
		
			<rect id="XMLID_131_" x="11.8" y="26.3" transform="matrix(0.7119 -0.7023 0.7023 0.7119 -15.0041 16.2802)" class="st11" width="1.1" height="0.3"/>
	</g>
</g>
</svg>
